<svg width="512" height="512" viewBox="0 0 512 512" fill="none" xmlns="http://www.w3.org/2000/svg">
    <rect width="512" height="512" rx="150" fill="url(#bg)"/>
    <circle cx="384" cy="124" r="86" fill="#FDE68A" fill-opacity="0.75"/>
    <circle cx="126" cy="388" r="112" fill="#14B8A6" fill-opacity="0.34"/>
    <path d="M137 175C137 145.73 160.73 122 190 122H346C377.48 122 403 147.52 403 179V199H332V187H207V232H309C366.99 232 414 279.01 414 337C414 394.99 366.99 442 309 442H128V370H309C327.23 370 342 355.23 342 337C342 318.77 327.23 304 309 304H207C168.34 304 137 272.66 137 234V175Z" fill="#061B16"/>
    <path d="M113 134H185V370H113V134Z" fill="#061B16"/>
    <path d="M104 116H196" stroke="#FFFFFF" stroke-opacity="0.5" stroke-width="14" stroke-linecap="round"/>
    <defs>
        <linearGradient id="bg" x1="55" y1="43" x2="457" y2="470" gradientUnits="userSpaceOnUse">
            <stop stop-color="#FBBF24"/>
            <stop offset="0.48" stop-color="#F59E0B"/>
            <stop offset="1" stop-color="#0F766E"/>
        </linearGradient>
    </defs>
</svg>
